<svg xmlns="http://www.w3.org/2000/svg" viewBox="0 0 159.95 159.95"><defs><style>.cls-1{fill:#fe4400;}.cls-2{fill:#fff;}</style></defs><title>Ativo 3</title><g id="Camada_2" data-name="Camada 2"><g id="Camada_1-2" data-name="Camada 1"><rect class="cls-1" width="159.95" height="159.95" rx="5.33" ry="5.33"/><path class="cls-2" d="M37.16,79.86V72.72L33.6,78.63h-.89l-3.54-5.82v7H27.26V69.08h1.65l4.28,7.15,4.2-7.15H39l0,10.78ZM49.52,75.8q0,.2,0,.57H43a2.34,2.34,0,0,0,.88,1.45,3,3,0,0,0,1.79.52,3,3,0,0,0,2.23-.89l1,1.18a3.4,3.4,0,0,1-1.4,1,5,5,0,0,1-1.91.34,5.1,5.1,0,0,1-2.39-.54,4,4,0,0,1-1.6-1.49,4.34,4.34,0,0,1-.55-2.19,4.26,4.26,0,0,1,.54-2.15,3.94,3.94,0,0,1,1.52-1.51,4.44,4.44,0,0,1,2.19-.54,4.23,4.23,0,0,1,2.14.54A3.55,3.55,0,0,1,49,73.58,4.45,4.45,0,0,1,49.52,75.8Zm-4.16-2.71a2.31,2.31,0,0,0-1.57.55A2.27,2.27,0,0,0,43,75.09h4.67a2.31,2.31,0,0,0-.76-1.45A2.28,2.28,0,0,0,45.36,73.09ZM53.91,80a7.18,7.18,0,0,1-2-.26,4.79,4.79,0,0,1-1.52-.66l.74-1.46a5.37,5.37,0,0,0,1.32.6A6,6,0,0,0,54,78.4c1.15,0,1.73-.3,1.73-.91a.61.61,0,0,0-.45-.6,7.41,7.41,0,0,0-1.4-.32,10.35,10.35,0,0,1-1.66-.36,2.6,2.6,0,0,1-1.11-.69,2,2,0,0,1-.46-1.4,2.16,2.16,0,0,1,1-1.86,4.38,4.38,0,0,1,2.65-.71,7,7,0,0,1,1.69.2,4.49,4.49,0,0,1,1.39.51l-.74,1.46a4.59,4.59,0,0,0-2.36-.62,2.59,2.59,0,0,0-1.29.26.76.76,0,0,0-.44.67.69.69,0,0,0,.47.66,8,8,0,0,0,1.46.35,11.18,11.18,0,0,1,1.62.36,2.46,2.46,0,0,1,1.08.68,1.89,1.89,0,0,1,.46,1.35,2.16,2.16,0,0,1-1,1.85A4.76,4.76,0,0,1,53.91,80Zm8.53-8.42a4,4,0,0,1,2.77.87,3.32,3.32,0,0,1,1,2.62v4.82H64.36v-1a2.28,2.28,0,0,1-1,.84,4.09,4.09,0,0,1-1.57.27,3.87,3.87,0,0,1-1.62-.31,2.61,2.61,0,0,1-1.08-.87,2.28,2.28,0,0,1-.37-1.28,2.15,2.15,0,0,1,.82-1.77,4,4,0,0,1,2.6-.68h2.13v-.12a1.68,1.68,0,0,0-.53-1.33,2.18,2.18,0,0,0-1.52-.46,4.6,4.6,0,0,0-1.37.21,3.68,3.68,0,0,0-1.13.6L59,72.56a4.57,4.57,0,0,1,1.55-.75A6.77,6.77,0,0,1,62.44,71.55Zm-.26,7a2.56,2.56,0,0,0,1.28-.32,1.88,1.88,0,0,0,.8-1v-1h-2c-1.11,0-1.66.36-1.66,1.09a1,1,0,0,0,.41.83A1.88,1.88,0,0,0,62.18,78.57Zm13.87-7a4,4,0,0,1,2.78.87,3.36,3.36,0,0,1,1,2.62v4.82H78v-1a2.37,2.37,0,0,1-1,.84,4.05,4.05,0,0,1-1.57.27,3.9,3.9,0,0,1-1.62-.31,2.61,2.61,0,0,1-1.08-.87,2.36,2.36,0,0,1-.36-1.28,2.17,2.17,0,0,1,.81-1.77,4.06,4.06,0,0,1,2.61-.68h2.12v-.12a1.68,1.68,0,0,0-.52-1.33,2.2,2.2,0,0,0-1.53-.46,4.6,4.6,0,0,0-1.37.21,3.51,3.51,0,0,0-1.12.6l-.76-1.4a4.53,4.53,0,0,1,1.56-.75A6.7,6.7,0,0,1,76.05,71.55Zm-.26,7a2.56,2.56,0,0,0,1.28-.32,1.84,1.84,0,0,0,.8-1v-1h-2c-1.11,0-1.66.36-1.66,1.09a1,1,0,0,0,.42.83A1.85,1.85,0,0,0,75.79,78.57Zm6.48-10.14h1.92V79.86H82.27ZM94.45,75.8q0,.2,0,.57H88a2.26,2.26,0,0,0,.88,1.45,2.93,2.93,0,0,0,1.78.52,3,3,0,0,0,2.24-.89l1,1.18a3.46,3.46,0,0,1-1.4,1,5.55,5.55,0,0,1-4.3-.2,3.91,3.91,0,0,1-1.6-1.49A4.35,4.35,0,0,1,86,75.75a4.26,4.26,0,0,1,.54-2.15,3.9,3.9,0,0,1,1.53-1.51,4.38,4.38,0,0,1,2.18-.54,4.24,4.24,0,0,1,2.15.54,3.52,3.52,0,0,1,1.47,1.49A4.45,4.45,0,0,1,94.45,75.8Zm-4.16-2.71a2.27,2.27,0,0,0-2.34,2h4.67a2.25,2.25,0,0,0-.75-1.45A2.32,2.32,0,0,0,90.29,73.09Zm8.93-1.54a4,4,0,0,1,2.77.87A3.32,3.32,0,0,1,103,75v4.82h-1.81v-1a2.37,2.37,0,0,1-1,.84,4.09,4.09,0,0,1-1.57.27,3.87,3.87,0,0,1-1.62-.31,2.61,2.61,0,0,1-1.08-.87,2.36,2.36,0,0,1-.37-1.28,2.15,2.15,0,0,1,.82-1.77,4,4,0,0,1,2.6-.68H101v-.12a1.68,1.68,0,0,0-.53-1.33A2.16,2.16,0,0,0,99,73.15a4.6,4.6,0,0,0-1.37.21,3.68,3.68,0,0,0-1.13.6l-.75-1.4a4.57,4.57,0,0,1,1.55-.75A6.77,6.77,0,0,1,99.22,71.55Zm-.26,7a2.56,2.56,0,0,0,1.28-.32,1.88,1.88,0,0,0,.8-1v-1h-2c-1.11,0-1.66.36-1.66,1.09a1,1,0,0,0,.41.83A1.9,1.9,0,0,0,99,78.57Zm11.42.85a2.31,2.31,0,0,1-.83.41,3.4,3.4,0,0,1-1,.14,2.86,2.86,0,0,1-2.09-.71,2.69,2.69,0,0,1-.74-2.06v-4h-1.36V71.7h1.36V69.82h1.92V71.7h2.21v1.54h-2.21v3.91a1.38,1.38,0,0,0,.29.93,1.15,1.15,0,0,0,.85.31,1.74,1.74,0,0,0,1.08-.34Zm5,.55a4.68,4.68,0,0,1-2.25-.54,4,4,0,0,1-1.57-1.49,4.34,4.34,0,0,1-.55-2.19,4.24,4.24,0,0,1,.55-2.17,4,4,0,0,1,1.57-1.49,5,5,0,0,1,4.51,0,3.86,3.86,0,0,1,1.56,1.49,4.16,4.16,0,0,1,.57,2.17,4.26,4.26,0,0,1-.57,2.19,3.86,3.86,0,0,1-1.56,1.49A4.66,4.66,0,0,1,115.39,80Zm0-1.65a2.37,2.37,0,0,0,1.76-.7,2.59,2.59,0,0,0,.69-1.87,2.54,2.54,0,0,0-.69-1.86,2.54,2.54,0,0,0-3.52,0,2.57,2.57,0,0,0-.67,1.86,2.62,2.62,0,0,0,.67,1.87A2.37,2.37,0,0,0,115.39,78.32Zm.77-9.92h2.26l-2.68,2.11h-1.66Zm7.29,4.44a3.22,3.22,0,0,1,2.93-1.29v1.83a2.48,2.48,0,0,0-.45,0,2.28,2.28,0,0,0-1.75.67,2.57,2.57,0,0,0-.63,1.88v4h-1.93V71.64h1.83Zm4.57-1.2h1.92v8.22H128Zm1-1.36a1.23,1.23,0,0,1-.88-.32,1.1,1.1,0,0,1-.36-.83,1.06,1.06,0,0,1,.36-.82A1.24,1.24,0,0,1,129,68a1.22,1.22,0,0,1,.87.33,1,1,0,0,1,.36.78,1.15,1.15,0,0,1-.36.86A1.16,1.16,0,0,1,129,70.28Zm6.62,1.27a4,4,0,0,1,2.77.87,3.32,3.32,0,0,1,1,2.62v4.82h-1.81v-1a2.37,2.37,0,0,1-1,.84A4.09,4.09,0,0,1,135,80a3.87,3.87,0,0,1-1.62-.31,2.61,2.61,0,0,1-1.08-.87,2.36,2.36,0,0,1-.37-1.28,2.15,2.15,0,0,1,.82-1.77,4,4,0,0,1,2.6-.68h2.13v-.12a1.68,1.68,0,0,0-.53-1.33,2.16,2.16,0,0,0-1.52-.46,4.6,4.6,0,0,0-1.37.21,3.68,3.68,0,0,0-1.13.6l-.75-1.4a4.57,4.57,0,0,1,1.55-.75A6.77,6.77,0,0,1,135.61,71.55Zm-.26,7a2.56,2.56,0,0,0,1.28-.32,1.88,1.88,0,0,0,.8-1v-1h-2c-1.11,0-1.66.36-1.66,1.09a1,1,0,0,0,.41.83A1.9,1.9,0,0,0,135.35,78.57Z"/></g></g></svg>