<svg width="23" height="24" viewBox="0 0 23 24" fill="none" xmlns="http://www.w3.org/2000/svg">
<path d="M11.5 24C5.14718 24 0 18.629 0 12C0 5.37097 5.14718 0 11.5 0C17.8528 0 23 5.37097 23 12C23 18.629 17.8528 24 11.5 24ZM12.8401 17.0516L9.33911 13.5484H17.8065C18.4232 13.5484 18.9194 13.0306 18.9194 12.3871V11.6129C18.9194 10.9694 18.4232 10.4516 17.8065 10.4516H9.33911L12.8401 6.94839C13.2899 6.49839 13.2992 5.74839 12.8587 5.28871L12.3486 4.76129C11.9127 4.30645 11.2079 4.30645 10.7766 4.76129L4.62319 11.1774C4.1873 11.6323 4.1873 12.3677 4.62319 12.8177L10.7766 19.2387C11.2125 19.6935 11.9173 19.6935 12.3486 19.2387L12.8587 18.7113C13.2992 18.2516 13.2899 17.5016 12.8401 17.0516Z" fill="#606060"/>
</svg>
