<svg width="15" height="20" viewBox="0 0 15 20" fill="none" xmlns="http://www.w3.org/2000/svg">
<path d="M14.375 1.875C14.7188 1.875 15 1.59375 15 1.25V0.625C15 0.28125 14.7188 0 14.375 0H0.625C0.28125 0 0 0.28125 0 0.625V1.25C0 1.59375 0.28125 1.875 0.625 1.875H1.25V7.99609C0.460937 8.39062 0 8.86328 0 9.375C0 12 1.35156 14.3047 3.39062 15.6445L2.55469 18.3867C2.30859 19.1875 2.91016 20 3.75 20H11.25C12.0898 20 12.6914 19.1875 12.4453 18.3867L11.6094 15.6445C13.6484 14.3047 15 12 15 9.375C15 8.86328 14.5391 8.39062 13.75 7.99609V1.875H14.375ZM3.125 2.8125C3.125 2.64062 3.26562 2.5 3.4375 2.5H5.3125C5.48438 2.5 5.625 2.64062 5.625 2.8125V3.4375C5.625 3.60938 5.48438 3.75 5.3125 3.75H3.4375C3.26562 3.75 3.125 3.60938 3.125 3.4375V2.8125ZM7.5 10.625C4.48828 10.625 2.04688 10.0664 2.04688 9.375C2.04688 8.68359 4.48828 8.125 7.5 8.125C10.5117 8.125 12.9531 8.68359 12.9531 9.375C12.9531 10.0664 10.5117 10.625 7.5 10.625Z" fill="white"/>
</svg>
