<svg width="16" height="18" viewBox="0 0 16 18" fill="none" xmlns="http://www.w3.org/2000/svg">
<path d="M0 16.3125C0 17.2441 0.767857 18 1.71429 18H14.2857C15.2321 18 16 17.2441 16 16.3125V6.75H0V16.3125ZM11.4286 9.42188C11.4286 9.18984 11.6214 9 11.8571 9H13.2857C13.5214 9 13.7143 9.18984 13.7143 9.42188V10.8281C13.7143 11.0602 13.5214 11.25 13.2857 11.25H11.8571C11.6214 11.25 11.4286 11.0602 11.4286 10.8281V9.42188ZM11.4286 13.9219C11.4286 13.6898 11.6214 13.5 11.8571 13.5H13.2857C13.5214 13.5 13.7143 13.6898 13.7143 13.9219V15.3281C13.7143 15.5602 13.5214 15.75 13.2857 15.75H11.8571C11.6214 15.75 11.4286 15.5602 11.4286 15.3281V13.9219ZM6.85714 9.42188C6.85714 9.18984 7.05 9 7.28571 9H8.71429C8.95 9 9.14286 9.18984 9.14286 9.42188V10.8281C9.14286 11.0602 8.95 11.25 8.71429 11.25H7.28571C7.05 11.25 6.85714 11.0602 6.85714 10.8281V9.42188ZM6.85714 13.9219C6.85714 13.6898 7.05 13.5 7.28571 13.5H8.71429C8.95 13.5 9.14286 13.6898 9.14286 13.9219V15.3281C9.14286 15.5602 8.95 15.75 8.71429 15.75H7.28571C7.05 15.75 6.85714 15.5602 6.85714 15.3281V13.9219ZM2.28571 9.42188C2.28571 9.18984 2.47857 9 2.71429 9H4.14286C4.37857 9 4.57143 9.18984 4.57143 9.42188V10.8281C4.57143 11.0602 4.37857 11.25 4.14286 11.25H2.71429C2.47857 11.25 2.28571 11.0602 2.28571 10.8281V9.42188ZM2.28571 13.9219C2.28571 13.6898 2.47857 13.5 2.71429 13.5H4.14286C4.37857 13.5 4.57143 13.6898 4.57143 13.9219V15.3281C4.57143 15.5602 4.37857 15.75 4.14286 15.75H2.71429C2.47857 15.75 2.28571 15.5602 2.28571 15.3281V13.9219ZM14.2857 2.25H12.5714V0.5625C12.5714 0.253125 12.3143 0 12 0H10.8571C10.5429 0 10.2857 0.253125 10.2857 0.5625V2.25H5.71429V0.5625C5.71429 0.253125 5.45714 0 5.14286 0H4C3.68571 0 3.42857 0.253125 3.42857 0.5625V2.25H1.71429C0.767857 2.25 0 3.00586 0 3.9375V5.625H16V3.9375C16 3.00586 15.2321 2.25 14.2857 2.25Z" fill="white"/>
</svg>
