<svg width="15" height="15" viewBox="0 0 15 15" fill="none" xmlns="http://www.w3.org/2000/svg">
<path fill-rule="evenodd" clip-rule="evenodd" d="M13 7.5C13 10.5376 10.5376 13 7.5 13C6.3986 13 5.37281 12.6763 4.51261 12.1187L12.1187 4.51261C12.6763 5.37281 13 6.3986 13 7.5ZM3.05844 10.7445L10.7445 3.05844C9.83495 2.39291 8.71336 2 7.5 2C4.46243 2 2 4.46243 2 7.5C2 8.71336 2.39291 9.83495 3.05844 10.7445ZM15 7.5C15 11.6421 11.6421 15 7.5 15C3.35786 15 0 11.6421 0 7.5C0 3.35786 3.35786 0 7.5 0C11.6421 0 15 3.35786 15 7.5Z" fill="#606060"/>
</svg>
