<svg width="20" height="14" viewBox="0 0 20 14" fill="none" xmlns="http://www.w3.org/2000/svg">
<path d="M6.00122 10.999H12.0007C13.6568 10.999 15.0004 9.65541 15.0004 7.9993H16.0003C18.2064 7.9993 20 6.20571 20 3.99965C20 1.79359 18.2064 0 16.0003 0H3.75142C3.33583 0 3.00149 0.334346 3.00149 0.749934V7.9993C3.00149 9.65541 4.34512 10.999 6.00122 10.999ZM16.0003 1.99983C17.1034 1.99983 18.0002 2.89662 18.0002 3.99965C18.0002 5.10268 17.1034 5.99948 16.0003 5.99948H15.0004V1.99983H16.0003ZM17.4908 13.9988H1.51099C0.0236203 13.9988 -0.395093 11.999 0.386089 11.999H18.6126C19.3938 11.999 18.9813 13.9988 17.4908 13.9988Z" fill="white"/>
</svg>
