<svg xmlns="http://www.w3.org/2000/svg" viewBox="0 0 159.95 159.95"><defs><style>.cls-1{fill:#fe4400;}.cls-2{fill:#fff;}</style></defs><title>Ativo 4</title><g id="Camada_2" data-name="Camada 2"><g id="Camada_1-2" data-name="Camada 1"><rect class="cls-1" width="159.95" height="159.95" rx="5.33" ry="5.33"/><path class="cls-2" d="M36.56,79.1V72.61L33.33,78h-.82l-3.22-5.29V79.1H27.56V69.3h1.5L33,75.8l3.82-6.5h1.5v9.8Zm11.23-3.69q0,.18,0,.51H41.89a2.12,2.12,0,0,0,.8,1.32,3,3,0,0,0,3.66-.34L47.28,78a3.09,3.09,0,0,1-1.27.91,4.54,4.54,0,0,1-1.74.31,4.6,4.6,0,0,1-2.17-.49,3.59,3.59,0,0,1-1.45-1.36,3.9,3.9,0,0,1-.51-2,4,4,0,0,1,.49-2A3.66,3.66,0,0,1,42,72a4.1,4.1,0,0,1,2-.49A3.85,3.85,0,0,1,46,72a3.34,3.34,0,0,1,1.35,1.36A4,4,0,0,1,47.79,75.41ZM44,72.94a2.11,2.11,0,0,0-1.43.51,2,2,0,0,0-.7,1.31h4.24a2,2,0,0,0-.68-1.31A2.09,2.09,0,0,0,44,72.94Zm7.77,6.26A6.64,6.64,0,0,1,50,79a4.46,4.46,0,0,1-1.38-.6L49.29,77a4.59,4.59,0,0,0,1.2.55,5.3,5.3,0,0,0,1.4.19c1,0,1.57-.27,1.57-.82a.55.55,0,0,0-.41-.55,6.58,6.58,0,0,0-1.27-.29,10.06,10.06,0,0,1-1.51-.33,2.39,2.39,0,0,1-1-.63,1.8,1.8,0,0,1-.42-1.27,2,2,0,0,1,.88-1.69,4,4,0,0,1,2.41-.65,6.75,6.75,0,0,1,1.54.18,4.37,4.37,0,0,1,1.26.47l-.67,1.33A4.1,4.1,0,0,0,52.12,73a2.46,2.46,0,0,0-1.18.23.68.68,0,0,0-.39.61.62.62,0,0,0,.42.6,7.4,7.4,0,0,0,1.33.32,9.82,9.82,0,0,1,1.47.32,2.25,2.25,0,0,1,1,.62,1.7,1.7,0,0,1,.42,1.23,2,2,0,0,1-.91,1.68A4.29,4.29,0,0,1,51.78,79.2Zm7.75-7.66a3.61,3.61,0,0,1,2.52.8,3,3,0,0,1,.88,2.38V79.1H61.28v-.91a2,2,0,0,1-.92.76,3.59,3.59,0,0,1-1.43.25,3.54,3.54,0,0,1-1.47-.28,2.37,2.37,0,0,1-1-.8A2.1,2.1,0,0,1,56.14,77a2,2,0,0,1,.75-1.61,3.7,3.7,0,0,1,2.36-.62h1.93v-.11a1.54,1.54,0,0,0-.47-1.2A2,2,0,0,0,59.32,73a4.06,4.06,0,0,0-1.24.19,3.06,3.06,0,0,0-1,.55l-.68-1.27a4.22,4.22,0,0,1,1.41-.69A6.27,6.27,0,0,1,59.53,71.54Zm-.24,6.39a2.26,2.26,0,0,0,1.17-.3,1.63,1.63,0,0,0,.72-.87V75.9h-1.8c-1,0-1.51.33-1.51,1a.9.9,0,0,0,.37.76A1.81,1.81,0,0,0,59.29,77.93Zm16.79-2.52q0,.18,0,.51H70.18a2.08,2.08,0,0,0,.8,1.32,2.94,2.94,0,0,0,3.65-.34L75.57,78a3.09,3.09,0,0,1-1.27.91,5,5,0,0,1-3.91-.18,3.59,3.59,0,0,1-1.45-1.36,3.9,3.9,0,0,1-.51-2,4,4,0,0,1,.49-2A3.66,3.66,0,0,1,70.31,72a4.1,4.1,0,0,1,2-.49,3.91,3.91,0,0,1,1.94.49,3.34,3.34,0,0,1,1.35,1.36A4.11,4.11,0,0,1,76.08,75.41ZM72.3,72.94a2.11,2.11,0,0,0-1.43.51,2,2,0,0,0-.7,1.31h4.24a2,2,0,0,0-.69-1.31A2,2,0,0,0,72.3,72.94Zm7.77,6.26A6.64,6.64,0,0,1,78.29,79a4.64,4.64,0,0,1-1.39-.6L77.58,77a4.44,4.44,0,0,0,1.2.55,5.3,5.3,0,0,0,1.4.19c1,0,1.57-.27,1.57-.82a.55.55,0,0,0-.41-.55,6.58,6.58,0,0,0-1.27-.29,10.06,10.06,0,0,1-1.51-.33,2.34,2.34,0,0,1-1-.63,1.8,1.8,0,0,1-.42-1.27A2,2,0,0,1,78,72.19a4,4,0,0,1,2.41-.65,6.81,6.81,0,0,1,1.54.18,4.37,4.37,0,0,1,1.26.47l-.67,1.33A4.11,4.11,0,0,0,80.4,73a2.45,2.45,0,0,0-1.17.23.68.68,0,0,0-.39.61.62.62,0,0,0,.42.6,7.18,7.18,0,0,0,1.33.32,10.42,10.42,0,0,1,1.47.32,2.31,2.31,0,0,1,1,.62,1.7,1.7,0,0,1,.42,1.23,2,2,0,0,1-.91,1.68A4.32,4.32,0,0,1,80.07,79.2Zm9-7.66a3.9,3.9,0,0,1,1.94.48,3.44,3.44,0,0,1,1.36,1.34,4,4,0,0,1,.49,2,4.06,4.06,0,0,1-.49,2,3.37,3.37,0,0,1-1.36,1.34,3.9,3.9,0,0,1-1.94.48,3,3,0,0,1-2.4-1v3.63H85V71.63h1.67v1a2.69,2.69,0,0,1,1.06-.8A3.63,3.63,0,0,1,89.11,71.54Zm-.2,6.16a2.09,2.09,0,0,0,1.58-.64,2.33,2.33,0,0,0,.63-1.7,2.31,2.31,0,0,0-.63-1.69A2.09,2.09,0,0,0,88.91,73a2.14,2.14,0,0,0-1.13.29,2,2,0,0,0-.8.81,2.69,2.69,0,0,0,0,2.47,2,2,0,0,0,.8.82A2.23,2.23,0,0,0,88.91,77.7Zm12.68-2.29q0,.18,0,.51H95.69a2.12,2.12,0,0,0,.8,1.32,3,3,0,0,0,3.66-.34l.93,1.08a3.09,3.09,0,0,1-1.27.91,4.54,4.54,0,0,1-1.74.31,4.6,4.6,0,0,1-2.17-.49,3.59,3.59,0,0,1-1.45-1.36,3.9,3.9,0,0,1-.51-2,4,4,0,0,1,.49-2A3.66,3.66,0,0,1,95.82,72a4.1,4.1,0,0,1,2-.49,3.88,3.88,0,0,1,1.94.49,3.34,3.34,0,0,1,1.35,1.36A4.11,4.11,0,0,1,101.59,75.41Zm-3.78-2.47a2.11,2.11,0,0,0-1.43.51,2,2,0,0,0-.7,1.31h4.24a2,2,0,0,0-.68-1.31A2.09,2.09,0,0,0,97.81,72.94Zm8.89,6.26a4.36,4.36,0,0,1-2.09-.49,3.7,3.7,0,0,1-1.44-1.36,3.91,3.91,0,0,1-.52-2,3.84,3.84,0,0,1,.52-2A3.67,3.67,0,0,1,104.6,72a4.46,4.46,0,0,1,2.1-.49,4,4,0,0,1,1.93.45,2.91,2.91,0,0,1,1.26,1.29l-1.34.78a2.15,2.15,0,0,0-.82-.77,2,2,0,0,0-1-.26,2.19,2.19,0,0,0-1.62.64,2.25,2.25,0,0,0-.64,1.69,2.34,2.34,0,0,0,.63,1.71,2.23,2.23,0,0,0,1.63.63,2.14,2.14,0,0,0,1-.25,2.26,2.26,0,0,0,.82-.78l1.34.78a3.06,3.06,0,0,1-1.27,1.3A4,4,0,0,1,106.7,79.2Zm4.7-7.57h1.75V79.1H111.4Zm1.6-2.94h2.06l-2.44,1.91h-1.51ZM118.49,70q-1.11,0-1.11,1.2v.45h2.06v1.4h-2v6h-1.75v-6h-1.23v-1.4h1.23v-.47a2.49,2.49,0,0,1,.7-1.89,2.65,2.65,0,0,1,2-.7,2.7,2.7,0,0,1,1.58.4l-.49,1.32A1.62,1.62,0,0,0,118.49,70Zm3.25,1.6h1.75V79.1h-1.75Zm.88-1.24a1.13,1.13,0,0,1-.8-.29,1,1,0,0,1-.32-.76,1,1,0,0,1,.32-.74,1.2,1.2,0,0,1,1.6,0,.9.9,0,0,1,.32.71,1.06,1.06,0,0,1-1.12,1.09Zm6.6,8.81a4.36,4.36,0,0,1-2.09-.49,3.57,3.57,0,0,1-1.44-1.36,3.81,3.81,0,0,1-.52-2,3.74,3.74,0,0,1,.52-2A3.6,3.6,0,0,1,127.12,72a4.46,4.46,0,0,1,2.1-.49,4,4,0,0,1,1.93.45,2.91,2.91,0,0,1,1.26,1.29l-1.35.78a2.15,2.15,0,0,0-1.86-1,2.19,2.19,0,0,0-1.62.64,2.25,2.25,0,0,0-.65,1.69,2.34,2.34,0,0,0,.63,1.71,2.26,2.26,0,0,0,1.64.63,2.09,2.09,0,0,0,1.86-1l1.35.78a3.09,3.09,0,0,1-1.28,1.3A3.93,3.93,0,0,1,129.22,79.2Zm7.56-7.66a3.61,3.61,0,0,1,2.52.8,3,3,0,0,1,.88,2.38V79.1h-1.65v-.91a2.13,2.13,0,0,1-.93.76,4.08,4.08,0,0,1-2.89,0,2.37,2.37,0,0,1-1-.8,2,2,0,0,1-.34-1.16,2,2,0,0,1,.74-1.61,3.73,3.73,0,0,1,2.37-.62h1.93v-.11a1.51,1.51,0,0,0-.48-1.2,2,2,0,0,0-1.38-.42,4.12,4.12,0,0,0-1.25.19,3.11,3.11,0,0,0-1,.55l-.69-1.27a4.37,4.37,0,0,1,1.42-.69A6.22,6.22,0,0,1,136.78,71.54Zm-.24,6.39a2.2,2.2,0,0,0,1.16-.3,1.61,1.61,0,0,0,.73-.87V75.9h-1.81c-1,0-1.51.33-1.51,1a.91.91,0,0,0,.38.76A1.77,1.77,0,0,0,136.54,77.93Z"/></g></g></svg>