<svg width="23" height="21" viewBox="0 0 23 21" fill="none" xmlns="http://www.w3.org/2000/svg">
<path d="M22.6817 11.429L15.0146 20.6149C14.3301 21.4351 13.1435 20.861 13.1435 19.6854V14.4363H6.93685C6.32988 14.4363 5.84156 13.8512 5.84156 13.124V7.87486C5.84156 7.14763 6.32988 6.56257 6.93685 6.56257H13.1435V1.31344C13.1435 0.143327 14.3255 -0.436264 15.0146 0.383912L22.6817 9.56989C23.1061 10.0839 23.1061 10.915 22.6817 11.429ZM8.76234 20.3415V18.1544C8.76234 17.7935 8.5159 17.4983 8.21469 17.4983H4.38117C3.57339 17.4983 2.92078 16.7164 2.92078 15.7485V5.25029C2.92078 4.28248 3.57339 3.50058 4.38117 3.50058H8.21469C8.5159 3.50058 8.76234 3.20532 8.76234 2.84444V0.657304C8.76234 0.296426 8.5159 0.00116293 8.21469 0.00116293H4.38117C1.9624 0.00116293 0 2.35233 0 5.25029V15.7485C0 18.6465 1.9624 20.9977 4.38117 20.9977H8.21469C8.5159 20.9977 8.76234 20.7024 8.76234 20.3415Z" fill="#606060"/>
</svg>
