<svg width="20" height="17" viewBox="0 0 20 17" fill="none" xmlns="http://www.w3.org/2000/svg">
<path d="M19.7232 9.25201L13.0562 16.6883C12.4609 17.3522 11.4291 16.8875 11.4291 15.9358V11.6865H6.03205C5.50424 11.6865 5.07962 11.2129 5.07962 10.6242V6.37488C5.07962 5.78618 5.50424 5.31256 6.03205 5.31256H11.4291V1.06326C11.4291 0.116027 12.457 -0.353166 13.0562 0.310786L19.7232 7.74705C20.0923 8.16313 20.0923 8.83593 19.7232 9.25201ZM7.61943 16.467V14.6964C7.61943 14.4043 7.40513 14.1653 7.14321 14.1653H3.80971C3.1073 14.1653 2.53981 13.5323 2.53981 12.7488V4.25024C2.53981 3.46677 3.1073 2.8338 3.80971 2.8338H7.14321C7.40513 2.8338 7.61943 2.59478 7.61943 2.30264V0.532103C7.61943 0.239964 7.40513 0.000941421 7.14321 0.000941421H3.80971C1.70643 0.000941421 0 1.90427 0 4.25024V12.7488C0 15.0948 1.70643 16.9981 3.80971 16.9981H7.14321C7.40513 16.9981 7.61943 16.7591 7.61943 16.467Z" fill="white"/>
</svg>
