<svg width="20" height="17" viewBox="0 0 20 17" fill="none" xmlns="http://www.w3.org/2000/svg">
<path d="M9.73484 4.41025L3.3336 10.1731V16.3928C3.3336 16.5538 3.39212 16.7083 3.4963 16.8222C3.60048 16.936 3.74178 17 3.88911 17L7.77978 16.989C7.92663 16.9882 8.06722 16.9239 8.17079 16.8101C8.27437 16.6963 8.33252 16.5423 8.33252 16.3818V12.7495C8.33252 12.5885 8.39104 12.434 8.49522 12.3202C8.5994 12.2063 8.7407 12.1423 8.88803 12.1423H11.1101C11.2574 12.1423 11.3987 12.2063 11.5029 12.3202C11.6071 12.434 11.6656 12.5885 11.6656 12.7495V16.3791C11.6654 16.459 11.6796 16.5382 11.7074 16.6121C11.7352 16.686 11.7761 16.7531 11.8277 16.8097C11.8793 16.8663 11.9406 16.9112 12.0081 16.9418C12.0756 16.9725 12.148 16.9882 12.2211 16.9882L16.1104 17C16.2577 17 16.399 16.936 16.5032 16.8222C16.6074 16.7083 16.6659 16.5538 16.6659 16.3928V10.1689L10.266 4.41025C10.1908 4.34396 10.0971 4.30781 10.0004 4.30781C9.90381 4.30781 9.81008 4.34396 9.73484 4.41025ZM19.8462 8.32714L16.9437 5.71195V0.455408C16.9437 0.334626 16.8998 0.218792 16.8216 0.133386C16.7435 0.0479804 16.6375 0 16.527 0H14.5827C14.4722 0 14.3663 0.0479804 14.2881 0.133386C14.21 0.218792 14.1661 0.334626 14.1661 0.455408V3.21101L11.0577 0.41556C10.7593 0.147241 10.385 0.000536374 9.99871 0.000536374C9.61239 0.000536374 9.23807 0.147241 8.93976 0.41556L0.151203 8.32714C0.109015 8.36525 0.0741102 8.41208 0.0484844 8.46494C0.0228586 8.51781 0.00701361 8.57568 0.00185477 8.63524C-0.00330407 8.6948 0.00232436 8.75489 0.0184184 8.81207C0.0345125 8.86925 0.0607569 8.92241 0.0956519 8.9685L0.981 10.145C1.0158 10.1912 1.0586 10.2295 1.10696 10.2577C1.15532 10.2858 1.20828 10.3033 1.26282 10.309C1.31735 10.3148 1.37239 10.3087 1.42477 10.2912C1.47716 10.2736 1.52587 10.245 1.56811 10.2068L9.73484 2.85427C9.81008 2.78798 9.90381 2.75183 10.0004 2.75183C10.0971 2.75183 10.1908 2.78798 10.266 2.85427L18.4331 10.2068C18.4753 10.245 18.5239 10.2737 18.5762 10.2913C18.6286 10.3088 18.6835 10.315 18.738 10.3094C18.7925 10.3037 18.8455 10.2864 18.8938 10.2584C18.9422 10.2304 18.985 10.1922 19.0199 10.1461L19.9052 8.96964C19.9401 8.92328 19.9662 8.86985 19.9821 8.81242C19.998 8.75498 20.0034 8.69468 19.9979 8.63498C19.9924 8.57527 19.9762 8.51734 19.9502 8.46451C19.9241 8.41168 19.8888 8.36499 19.8462 8.32714Z" fill="white"/>
</svg>
