<svg width="221" height="66" viewBox="0 0 221 66" fill="none" xmlns="http://www.w3.org/2000/svg">
<path d="M10.0602 16H18.1602V44.4H35.7102V51H10.0602V16ZM50.8289 23.7C54.9956 23.7 58.1956 24.7 60.4289 26.7C62.6622 28.6667 63.7789 31.65 63.7789 35.65V51H56.4789V47.65C55.0122 50.15 52.2789 51.4 48.2789 51.4C46.2122 51.4 44.4122 51.05 42.8789 50.35C41.3789 49.65 40.2289 48.6833 39.4289 47.45C38.6289 46.2167 38.2289 44.8167 38.2289 43.25C38.2289 40.75 39.1622 38.7833 41.0289 37.35C42.9289 35.9167 45.8456 35.2 49.7789 35.2H55.9789C55.9789 33.5 55.4622 32.2 54.4289 31.3C53.3956 30.3667 51.8456 29.9 49.7789 29.9C48.3456 29.9 46.9289 30.1333 45.5289 30.6C44.1622 31.0333 42.9956 31.6333 42.0289 32.4L39.2289 26.95C40.6956 25.9167 42.4456 25.1167 44.4789 24.55C46.5456 23.9833 48.6622 23.7 50.8289 23.7ZM50.2289 46.15C51.5622 46.15 52.7456 45.85 53.7789 45.25C54.8122 44.6167 55.5456 43.7 55.9789 42.5V39.75H50.6289C47.4289 39.75 45.8289 40.8 45.8289 42.9C45.8289 43.9 46.2122 44.7 46.9789 45.3C47.7789 45.8667 48.8622 46.15 50.2289 46.15ZM78.2883 27.65C79.2216 26.35 80.4716 25.3667 82.0383 24.7C83.6383 24.0333 85.4716 23.7 87.5383 23.7V30.9C86.6716 30.8333 86.0883 30.8 85.7883 30.8C83.5549 30.8 81.8049 31.4333 80.5383 32.7C79.2716 33.9333 78.6383 35.8 78.6383 38.3V51H70.8383V24.1H78.2883V27.65ZM102.88 23.7C107.046 23.7 110.246 24.7 112.48 26.7C114.713 28.6667 115.83 31.65 115.83 35.65V51H108.53V47.65C107.063 50.15 104.33 51.4 100.33 51.4C98.263 51.4 96.463 51.05 94.9297 50.35C93.4297 49.65 92.2797 48.6833 91.4797 47.45C90.6797 46.2167 90.2797 44.8167 90.2797 43.25C90.2797 40.75 91.213 38.7833 93.0797 37.35C94.9797 35.9167 97.8964 35.2 101.83 35.2H108.03C108.03 33.5 107.513 32.2 106.48 31.3C105.446 30.3667 103.896 29.9 101.83 29.9C100.396 29.9 98.9797 30.1333 97.5797 30.6C96.213 31.0333 95.0464 31.6333 94.0797 32.4L91.2797 26.95C92.7464 25.9167 94.4964 25.1167 96.5297 24.55C98.5964 23.9833 100.713 23.7 102.88 23.7ZM102.28 46.15C103.613 46.15 104.796 45.85 105.83 45.25C106.863 44.6167 107.596 43.7 108.03 42.5V39.75H102.68C99.4797 39.75 97.8797 40.8 97.8797 42.9C97.8797 43.9 98.263 44.7 99.0297 45.3C99.8297 45.8667 100.913 46.15 102.28 46.15ZM139.239 23.7C142.572 23.7 145.256 24.7 147.289 26.7C149.356 28.7 150.389 31.6667 150.389 35.6V51H142.589V36.8C142.589 34.6667 142.122 33.0833 141.189 32.05C140.256 30.9833 138.906 30.45 137.139 30.45C135.172 30.45 133.606 31.0667 132.439 32.3C131.272 33.5 130.689 35.3 130.689 37.7V51H122.889V24.1H130.339V27.25C131.372 26.1167 132.656 25.25 134.189 24.65C135.722 24.0167 137.406 23.7 139.239 23.7ZM155.459 61.1C152.726 61.1 150.643 60.6 149.209 59.6L151.309 53.95C152.209 54.5833 153.309 54.9 154.609 54.9C155.609 54.9 156.393 54.5667 156.959 53.9C157.526 53.2667 157.809 52.3 157.809 51V24.1H165.609V50.95C165.609 54.0833 164.709 56.55 162.909 58.35C161.143 60.1833 158.659 61.1 155.459 61.1ZM161.709 20.35C160.276 20.35 159.109 19.9333 158.209 19.1C157.309 18.2667 156.859 17.2333 156.859 16C156.859 14.7667 157.309 13.7333 158.209 12.9C159.109 12.0667 160.276 11.65 161.709 11.65C163.143 11.65 164.309 12.05 165.209 12.85C166.109 13.65 166.559 14.65 166.559 15.85C166.559 17.15 166.109 18.2333 165.209 19.1C164.309 19.9333 163.143 20.35 161.709 20.35ZM183.641 23.7C187.808 23.7 191.008 24.7 193.241 26.7C195.475 28.6667 196.591 31.65 196.591 35.65V51H189.291V47.65C187.825 50.15 185.091 51.4 181.091 51.4C179.025 51.4 177.225 51.05 175.691 50.35C174.191 49.65 173.041 48.6833 172.241 47.45C171.441 46.2167 171.041 44.8167 171.041 43.25C171.041 40.75 171.975 38.7833 173.841 37.35C175.741 35.9167 178.658 35.2 182.591 35.2H188.791C188.791 33.5 188.275 32.2 187.241 31.3C186.208 30.3667 184.658 29.9 182.591 29.9C181.158 29.9 179.741 30.1333 178.341 30.6C176.975 31.0333 175.808 31.6333 174.841 32.4L172.041 26.95C173.508 25.9167 175.258 25.1167 177.291 24.55C179.358 23.9833 181.475 23.7 183.641 23.7ZM183.041 46.15C184.375 46.15 185.558 45.85 186.591 45.25C187.625 44.6167 188.358 43.7 188.791 42.5V39.75H183.441C180.241 39.75 178.641 40.8 178.641 42.9C178.641 43.9 179.025 44.7 179.791 45.3C180.591 45.8667 181.675 46.15 183.041 46.15ZM203.651 13.9H211.451V51H203.651V13.9Z" fill="white"/>
<circle cx="161.692" cy="16.026" r="4.85456" transform="rotate(5 161.692 16.026)" fill="#FE4400" stroke="black" stroke-width="0.8"/>
<path fill-rule="evenodd" clip-rule="evenodd" d="M163.428 12.7175C163.442 12.7239 165.501 11.26 166.492 11.2918C167.483 11.3223 169.806 9.46888 171.561 7.24692C169.174 7.4553 166.623 8.37796 165.432 9.55052C164.24 10.7231 163.428 12.7175 163.428 12.7175Z" fill="#00BD00" stroke="black" stroke-width="0.6" stroke-linejoin="round"/>
<path fill-rule="evenodd" clip-rule="evenodd" d="M163.434 12.6092C163.416 12.6102 162.615 10.6685 161.717 10.3851C160.819 10.1006 160.055 7.7311 160.05 5.21631C162.014 6.15161 163.628 7.76852 163.866 9.1791C164.103 10.5911 163.434 12.6092 163.434 12.6092Z" fill="#00BD00" stroke="black" stroke-width="0.6" stroke-linejoin="round"/>
<path d="M160.709 12.2557C161.163 12.5935 160.248 12.494 159.144 14.2979C157.891 16.3472 158.391 17.4088 157.915 17.116C157.438 16.8207 157.641 15.1571 158.358 13.9587C159.076 12.7591 160.257 11.9192 160.709 12.2557Z" fill="white"/>
</svg>
