<svg width="37" height="48" viewBox="0 0 37 48" fill="none" xmlns="http://www.w3.org/2000/svg">
<circle cx="12.8537" cy="33.9339" r="11.6656" transform="rotate(5 12.8537 33.9339)" fill="#C4C4C4" stroke="black" stroke-width="0.4"/>
<path fill-rule="evenodd" clip-rule="evenodd" d="M16.7727 26.4618C16.8038 26.4764 21.4541 23.1706 23.6909 23.2425C25.9302 23.3113 31.1755 19.126 35.1378 14.1084C29.749 14.579 23.9881 16.6625 21.2974 19.3103C18.6068 21.9581 16.7727 26.4618 16.7727 26.4618Z" fill="#9D9D9D" stroke="black" stroke-width="0.3" stroke-linejoin="round"/>
<path fill-rule="evenodd" clip-rule="evenodd" d="M16.7821 26.2163C16.743 26.2186 14.9332 21.8338 12.9058 21.194C10.8786 20.5517 9.1533 15.2009 9.14062 9.52209C13.5759 11.6342 17.2203 15.2854 17.7577 18.4707C18.2926 21.6591 16.7821 26.2163 16.7821 26.2163Z" fill="#9D9D9D" stroke="black" stroke-width="0.3" stroke-linejoin="round"/>
<path d="M10.6297 25.4186C11.654 26.1816 9.58978 25.9568 7.09676 30.0303C4.26565 34.6579 5.3948 37.0553 4.32171 36.3941C3.24389 35.7271 3.70244 31.9706 5.32198 29.2643C6.94135 26.5554 9.61003 24.659 10.6297 25.4186Z" fill="white"/>
</svg>
