<svg width="37" height="48" viewBox="0 0 37 48" fill="none" xmlns="http://www.w3.org/2000/svg">
<circle cx="12.8537" cy="33.9342" r="11.6656" transform="rotate(5 12.8537 33.9342)" fill="#FE4400" stroke="black" stroke-width="0.4"/>
<path fill-rule="evenodd" clip-rule="evenodd" d="M16.7727 26.4619C16.8038 26.4765 21.4541 23.1707 23.6909 23.2426C25.9302 23.3114 31.1755 19.1261 35.1378 14.1086C29.749 14.5791 23.9881 16.6626 21.2974 19.3104C18.6068 21.9582 16.7727 26.4619 16.7727 26.4619Z" fill="#00BD00" stroke="black" stroke-width="0.3" stroke-linejoin="round"/>
<path fill-rule="evenodd" clip-rule="evenodd" d="M16.7821 26.2165C16.743 26.2187 14.9332 21.834 12.9058 21.1941C10.8786 20.5518 9.1533 15.201 9.14062 9.52222C13.5759 11.6343 17.2203 15.2855 17.7577 18.4708C18.2926 21.6592 16.7821 26.2165 16.7821 26.2165Z" fill="#00BD00" stroke="black" stroke-width="0.3" stroke-linejoin="round"/>
<path d="M10.6297 25.4189C11.654 26.1819 9.58978 25.9571 7.09676 30.0306C4.26565 34.6582 5.3948 37.0555 4.32171 36.3944C3.24389 35.7274 3.70244 31.9709 5.32198 29.2645C6.94135 26.5556 9.61003 24.6592 10.6297 25.4189Z" fill="white"/>
</svg>
