<svg width="37" height="48" viewBox="0 0 37 48" fill="none" xmlns="http://www.w3.org/2000/svg">
<circle cx="12.8537" cy="33.9339" r="11.6656" transform="rotate(5 12.8537 33.9339)" fill="white" stroke="black" stroke-width="0.4"/>
<path fill-rule="evenodd" clip-rule="evenodd" d="M16.7727 26.4617C16.8038 26.4763 21.4541 23.1705 23.6909 23.2424C25.9302 23.3112 31.1755 19.1258 35.1378 14.1083C29.749 14.5789 23.9881 16.6624 21.2974 19.3102C18.6068 21.958 16.7727 26.4617 16.7727 26.4617Z" fill="white" stroke="black" stroke-width="0.3" stroke-linejoin="round"/>
<path fill-rule="evenodd" clip-rule="evenodd" d="M16.7821 26.2162C16.743 26.2185 14.9332 21.8337 12.9058 21.1939C10.8786 20.5515 9.1533 15.2007 9.14062 9.52197C13.5759 11.634 17.2203 15.2852 17.7577 18.4706C18.2926 21.659 16.7821 26.2162 16.7821 26.2162Z" fill="white" stroke="black" stroke-width="0.3" stroke-linejoin="round"/>
<path d="M10.5652 25.5138L10.5652 25.5138C10.6926 25.6087 10.7615 25.6813 10.7906 25.7405C10.8044 25.7686 10.8065 25.7886 10.8056 25.8016C10.8048 25.8132 10.8011 25.8271 10.7889 25.8476C10.7601 25.8965 10.6972 25.962 10.5817 26.0582C10.5053 26.1219 10.4148 26.1921 10.309 26.2742C10.2588 26.3131 10.2051 26.3547 10.1479 26.3996C9.43965 26.9547 8.28595 27.9298 7.02667 29.9874L7.02665 29.9875C5.59821 32.3223 5.1677 34.0975 4.95987 35.2038C4.93398 35.3416 4.91158 35.4689 4.89122 35.5849L4.88805 35.603C4.86891 35.7121 4.85164 35.8106 4.83478 35.8993C4.79846 36.0906 4.76653 36.2217 4.7297 36.3059C4.71202 36.3464 4.69723 36.3663 4.68728 36.3761C4.67952 36.3837 4.66899 36.391 4.64875 36.394C4.59887 36.4013 4.51618 36.3787 4.38195 36.296C4.13473 36.143 3.9677 35.8069 3.88643 35.3304C3.80539 34.8553 3.81152 34.2507 3.90155 33.5788C4.08173 32.2342 4.59538 30.6385 5.39291 29.3058L5.39294 29.3057C6.19196 27.9691 7.24985 26.8336 8.23067 26.1275C9.21932 25.4158 10.0946 25.1632 10.5652 25.5138Z" fill="white" stroke="black" stroke-width="0.2"/>
</svg>
