<svg width="23" height="24" viewBox="0 0 23 24" fill="none" xmlns="http://www.w3.org/2000/svg">
<path d="M11.5 0C5.14718 0 0 5.37097 0 12C0 18.629 5.14718 24 11.5 24C17.8528 24 23 18.629 23 12C23 5.37097 17.8528 0 11.5 0ZM18.1774 13.3548C18.1774 13.6742 17.927 13.9355 17.621 13.9355H13.3548V18.3871C13.3548 18.7065 13.1044 18.9677 12.7984 18.9677H10.2016C9.89557 18.9677 9.64516 18.7065 9.64516 18.3871V13.9355H5.37903C5.07298 13.9355 4.82258 13.6742 4.82258 13.3548V10.6452C4.82258 10.3258 5.07298 10.0645 5.37903 10.0645H9.64516V5.6129C9.64516 5.29355 9.89557 5.03226 10.2016 5.03226H12.7984C13.1044 5.03226 13.3548 5.29355 13.3548 5.6129V10.0645H17.621C17.927 10.0645 18.1774 10.3258 18.1774 10.6452V13.3548Z" fill="#606060"/>
</svg>
