<svg width="15" height="15" viewBox="0 0 15 15" fill="none" xmlns="http://www.w3.org/2000/svg">
<path d="M9.34391 3.28322L7.07107 5.55606L4.79822 3.28322C4.51933 3.00432 4.06697 3.00432 3.78807 3.28322L3.283 3.78829C3.0041 4.06719 3.0041 4.51955 3.283 4.79845L5.55584 7.07129L3.283 9.34413C3.0041 9.62303 3.0041 10.0754 3.283 10.3543L3.78807 10.8594C4.06697 11.1383 4.51933 11.1383 4.79822 10.8594L7.07107 8.58652L9.34391 10.8594C9.62281 11.1383 10.0752 11.1383 10.3541 10.8594L10.8591 10.3543C11.138 10.0754 11.138 9.62303 10.8591 9.34413L8.5863 7.07129L10.8591 4.79845C11.138 4.51955 11.138 4.06719 10.8591 3.78829L10.3541 3.28322C10.0752 3.00432 9.62281 3.00432 9.34391 3.28322Z" fill="white"/>
</svg>
