<svg xmlns="http://www.w3.org/2000/svg" viewBox="0 0 1582.43 439.41"><defs><style>.cls-1{fill:#fff;}.cls-2{fill:#c64834;stroke-width:0.8px;}.cls-2,.cls-3{stroke:#040006;}.cls-3{fill:#319642;stroke-linejoin:round;stroke-width:0.6px;}</style></defs><title>Ativo 1</title><g id="Camada_2" data-name="Camada 2"><g id="Camada_1-2" data-name="Camada 1"><path class="cls-1" d="M0,85H63.65V308.19h137.9v51.86H0Zm320.34,60.51q49.11,0,75.43,23.57,26.33,23.17,26.33,70.32V360.05H364.74V333.72q-17.3,29.47-64.44,29.47-24.35,0-42.43-8.25-17.67-8.25-27.1-22.79a59.27,59.27,0,0,1-9.43-33q0-29.46,22-46.36,22.39-16.89,68.75-16.89h48.72q0-20-12.18-30.65-12.18-11-36.54-11a105.16,105.16,0,0,0-33.39,5.5,85.29,85.29,0,0,0-27.51,14.15l-22-42.83q17.3-12.18,41.26-18.86A187.87,187.87,0,0,1,320.34,145.54Zm-4.71,176.4q15.71,0,27.89-7.07a40.74,40.74,0,0,0,17.29-21.61V271.65h-42q-37.71,0-37.72,24.75a22.76,22.76,0,0,0,9,18.86Q299.52,321.93,315.63,321.94ZM536.1,176.57a68.43,68.43,0,0,1,29.47-23.18q18.85-7.86,43.22-7.85v56.57q-10.21-.78-13.76-.79-26.31,0-41.25,14.93-14.92,14.53-14.93,44v99.79H477.57V148.68H536.1Zm193.23-31q49.11,0,75.44,23.57,26.31,23.17,26.32,70.32V360.05H773.73V333.72q-17.29,29.47-64.44,29.47-24.36,0-42.43-8.25-17.67-8.25-27.1-22.79a59.27,59.27,0,0,1-9.43-33q0-29.46,22-46.36,22.39-16.89,68.75-16.89H769.8q0-20-12.18-30.65-12.18-11-36.54-11a105.16,105.16,0,0,0-33.39,5.5,85.29,85.29,0,0,0-27.51,14.15l-22-42.83q17.3-12.18,41.26-18.86A187.87,187.87,0,0,1,729.33,145.54Zm-4.71,176.4q15.71,0,27.89-7.07a40.74,40.74,0,0,0,17.29-21.61V271.65h-42q-37.71,0-37.72,24.75a22.73,22.73,0,0,0,9,18.86Q708.52,321.93,724.62,321.94ZM1015,145.54q39.29,0,63.26,23.57,24.36,23.56,24.36,69.93v121h-61.29V248.47q0-25.14-11-37.32-11-12.59-31.83-12.58-23.17,0-36.93,14.54-13.76,14.14-13.75,42.43V360.05H886.55V148.68h58.54v24.75A79.42,79.42,0,0,1,975.34,153,102.91,102.91,0,0,1,1015,145.54Zm127.45,293.87q-32.21,0-49.11-11.79l16.5-44.39q10.62,7.45,25.93,7.46,11.79,0,18.47-7.86,6.67-7.45,6.68-22.78V148.68h61.29v211q0,36.93-21.22,58.15Q1180.21,439.4,1142.47,439.41Zm49.11-320.2q-16.89,0-27.5-9.82A31.87,31.87,0,0,1,1153.47,85a31.87,31.87,0,0,1,10.61-24.36q10.61-9.81,27.5-9.82t27.5,9.43a30.22,30.22,0,0,1,10.61,23.57q0,15.33-10.61,25.54Q1208.47,119.22,1191.58,119.21Zm172.33,26.33q49.13,0,75.44,23.57,26.33,23.17,26.32,70.32V360.05h-57.36V333.72q-17.28,29.47-64.43,29.47-24.36,0-42.43-8.25-17.68-8.25-27.11-22.79a59.27,59.27,0,0,1-9.43-33q0-29.46,22-46.36,22.39-16.89,68.75-16.89h48.72q0-20-12.18-30.65-12.18-11-36.54-11a105.16,105.16,0,0,0-33.39,5.5,85.34,85.34,0,0,0-27.5,14.15l-22-42.83q17.28-12.18,41.25-18.86A187.92,187.92,0,0,1,1363.91,145.54Zm-4.71,176.4q15.72,0,27.89-7.07a40.65,40.65,0,0,0,17.29-21.61V271.65h-42q-37.71,0-37.71,24.75a22.75,22.75,0,0,0,9,18.86Q1343.1,321.93,1359.2,321.94ZM1521.14,68.53h61.29V360.05h-61.29Z"/><circle class="cls-2" cx="1191.45" cy="85.24" r="38.14" transform="translate(1002.69 1264.72) rotate(-85)"/><path class="cls-3" d="M1205.09,59.24c.11,0,16.29-11.45,24.08-11.2s26-14.33,39.82-31.78c-18.75,1.63-38.8,8.88-48.15,18.1S1205.09,59.24,1205.09,59.24Z"/><path class="cls-3" d="M1205.14,58.39c-.14,0-6.44-15.25-13.49-17.48S1178.59,20.06,1178.55.3c15.43,7.35,28.11,20.05,30,31.14S1205.14,58.39,1205.14,58.39Z"/></g></g></svg>