<svg xmlns="http://www.w3.org/2000/svg" viewBox="0 0 547.59 635.33"><defs><style>.cls-1{fill:#ff8c03;}.cls-2{fill:#fcbc08;}.cls-3{fill:#f28106;opacity:0.7;}.cls-4{fill:#7c6a13;}.cls-5{fill:#937b18;}</style></defs><title>Ativo 1</title><g id="Camada_2" data-name="Camada 2"><g id="Layer_1" data-name="Layer 1"><path class="cls-1" d="M446.12,182.14C514.72,232.6,605,392.28,498.78,523.63c-107,132.32-261.49,139.17-378.6,62C-1.66,505.27-60.06,309.07,87.45,168.66,205.71,56.09,342.55,106,446.12,182.14Z"/><path class="cls-2" d="M159,163.39l.3-.07.08-.07Z"/><path class="cls-2" d="M174.91,180c8-3.9,17.05-12.17,9.48-19.46s-17.87,1-25.13,2.81C149.3,172.46,153.46,190.41,174.91,180Z"/><path class="cls-2" d="M159.34,163.25l12.27-4.77A19.09,19.09,0,0,0,159.34,163.25Z"/><path class="cls-2" d="M137.37,198.44c3-2.21,7.14-6.82,3.13-10.07-2.84-2.3-5.85-.79-7.69,1.65-2.51,1.57-4.73,4.11-5,6.62C127.17,203.36,134.22,200.72,137.37,198.44Z"/><path class="cls-2" d="M189.92,194.28c-2.6-1.41-5.14-1-7.56.28-3.58.39-8.06,1.91-8.85,4.83a3.66,3.66,0,0,0-.11,1.88c-.36.25-.7.49-1,.7l1.06-.62c1,3.32,8.82.91,11.67.15C188.22,200.67,196.08,197.65,189.92,194.28Z"/><path class="cls-2" d="M172.36,202l-.49.28Z"/><path class="cls-2" d="M206.8,176.27c-3.45,1-7.35,4.88-5.36,8.25,2.17,3.68,10.11,2.08,13,.49C226,178.58,211.07,173.71,206.8,176.27Z"/><path class="cls-2" d="M221.2,155.05c-2.37-.32-6.69-1.48-8.53.64a3.33,3.33,0,0,0-.32,4.07c.17,2.41,4.13,4.57,5.75,5.39,3.44,1.74,21.05,7.44,22.29,1.46C241.86,159.51,225.51,155.63,221.2,155.05Z"/><path class="cls-2" d="M202.1,143.1c3.59,1.92,16.45,1.44,17.76-3.74,1.34-5.33-7-6.36-10.36-5.92a13.2,13.2,0,0,0-5.56,3.19C200.51,138.27,198,140.88,202.1,143.1Z"/><path class="cls-2" d="M139.66,173.55c6.68-5,.14-7.75-5.1-6.74l.15-.12c-3-.37-10.61,3.34-8.57,7.49S137.09,175.46,139.66,173.55Z"/><path class="cls-2" d="M111.63,205.32c2.49-2.86,10.12-15.39,1.35-15.87a6.17,6.17,0,0,0-4.54,2.32c-4.18,2.57-7.79,8.72-8.83,12.26C96.2,215.57,107.27,210.33,111.63,205.32Z"/><path class="cls-2" d="M158.75,208.85c-2.86-1.07-7.85-.71-11.56,1-6.53,1.78-14.15,7-15.32,11.85-2.88,11.91,18,3.36,22.52,1.8C161,221.16,168.48,212.5,158.75,208.85Z"/><path class="cls-2" d="M193.8,218.24c-3.32,1.14-6.94,3.9-6.87,6.66.13,5.89,12,4.09,15.37,2.52C215.18,221.4,198.36,215.63,193.8,218.24Z"/><path class="cls-2" d="M276.25,152a5.82,5.82,0,0,0-5.75,2.35c3.71,7.2,20.21,7.87,24,.4C289.86,148.81,282.25,148.1,276.25,152Z"/><path class="cls-2" d="M242.29,182.82c7.23,2.52,26.77,3.81,28.3-6.34-4.12-2.61-11.3-4.41-15.66-1.85C248.83,174.34,242.38,176.41,242.29,182.82Z"/><path class="cls-2" d="M256.4,130c-3.65-4.83-10-4.46-14.32-1.46a6.78,6.78,0,0,0-3.43,4.18C243.67,136.53,252.94,134.92,256.4,130Z"/><path class="cls-2" d="M309.55,172c-14.42.21,4.16,18.56,12.16,12.69C328.82,179.47,315.28,168.24,309.55,172Z"/><path class="cls-2" d="M104.19,231.59c-4.48-3.54-8.24-.1-10.78,4.13-9.66,6.18-21.27,20.82-12,24.39C92.79,264.53,103.92,239.56,104.19,231.59Z"/><path class="cls-2" d="M77.67,212.64c-12.44,2.41-6.53,23.05,5.27,8.93C90.29,212.78,82.76,210,77.67,212.64Z"/><path class="cls-2" d="M148.31,250.59a6.49,6.49,0,0,0-4.54,5.71c4.64,3.34,17,3.61,20.07-2.52C168.45,244.64,152.43,243.45,148.31,250.59Z"/><path class="cls-2" d="M258.53,216.59l-.68-1a8.79,8.79,0,0,0-.58,2.54c-.71,1.19-.72,2.25.38,2.66,2.59,6.77,16.82,7,14.1-1.51S261.87,213.33,258.53,216.59Z"/><path class="cls-2" d="M386.3,198.57c-8.4-11.55-25.74-.1-14.84,3.64C377.88,206.84,394.53,209.89,386.3,198.57Z"/><path class="cls-2" d="M88.59,308.68l1.71-3.06c-5.21,2.5-8.09,9.24-9.19,14.56,5,1.32,19.54-8.42,19.16-14.88C99.67,295.53,92.86,302.44,88.59,308.68Z"/><path class="cls-2" d="M219.07,276.08c1.84,2.09,3.21,1.89,4.87,1.1,6,.73,17.08-.79,12.38-7.26S220.73,271,219.07,276.08Z"/><path class="cls-2" d="M38.9,269.64a10.23,10.23,0,0,0-.75,5c7.37,2.51,26.09.41,19.9-11.72C52.57,252.21,41,261,38.9,269.64Z"/><path class="cls-2" d="M64.53,238.34l.16-.18c-4.37-.43-7.2,1.61-7.57,6.08,5.22,2.25,10.67.42,12.74-4.93A8.42,8.42,0,0,0,64.53,238.34Z"/><path class="cls-3" d="M88.74,498.59c-27,19.76,110.43,119.42,199.76,116C403.56,610.06,481,526,504.69,476.66s15.36-189.25-14.18-179.49c-10.55,3.49,2.38,51-40.94,122.89-38,63.12-102.9,125.38-188.84,121.12C143.11,535.34,106.6,485.51,88.74,498.59Z"/><path class="cls-4" d="M383.54,152.34s-18.6.86-11.19,19.22,52.23,48.24,65.11,43.23c12.6-4.89,13.47-20-5.34-34.41S400.66,154.56,383.54,152.34Z"/><path class="cls-4" d="M406.86,177s51.95-53.81,66.78-74S522.86,5.75,522.86,5.75s4.59-6.82,10.95-5.61,4.55,10.75,4.55,10.75-36.25,74.2-50.94,94.63c-29.86,41.54-69.21,86.77-69.21,86.77Z"/><path class="cls-4" d="M497.5,75.59c-3.18-.6-85.78-10.82-85.78-10.82l-3.13,4.9,42.62,7,42.56,7Z"/><path class="cls-4" d="M318.8,172.28c-88.61,22.57-219.57-40.65-219.57-40.65S186.7,29.67,261.73,22,467,74.19,467,74.19,407.65,149.65,318.8,172.28Z"/><path class="cls-5" d="M384.29,157.8s-6.67,9.11-2,18.17c6.41,12.45,32.21,25.65,32.21,25.65l2.1-16.19s-6.91-4.74-7.6-8.77.69-6.22.69-6.22Z"/><path class="cls-5" d="M438.06,76.37s-79.63-8.55-148.51,1.41S116.68,120.67,118,125.31,231.68,87.64,287.28,83.93s154.87-.19,154.87-.19Z"/><path class="cls-5" d="M403.19,78.92s-1.88,9.89-14.41,27-27.46,39.19-24.93,38.69,20.65-23.89,28.81-36S411.38,79.5,411.38,79.5Z"/><path class="cls-5" d="M334.27,79.48s0,12.69-15.19,44-21.34,40.36-17.58,41.07,15.11-23,22.76-40.08,19.5-46.08,19.5-46.08Z"/><path class="cls-5" d="M267.19,85.75s1.59,9.58-5.24,32.68-15.17,36.16-12.06,37.73,11.1-19.85,15.74-36.54,11.49-37.35,11.49-37.35Z"/><path class="cls-5" d="M195.13,102.8s.54,7.42-3.67,19.31-10.87,23.8-8.9,23.69,9.31-10.43,12.31-21.09,6.36-23.19,6.36-23.19Z"/><path class="cls-5" d="M411.36,77.05s-10.3-15.13-26-24.95c-13.91-8.71-31.74-15.31-33.51-13.7s19.07,7.53,26.45,12.35,27.23,26.17,27.23,26.17Z"/><path class="cls-5" d="M340.51,75s-5.95-17-21.17-28.23-42.77-19.86-47.26-18.4,34.5,11.29,43.25,19.91S331.25,76,331.25,76Z"/><path class="cls-5" d="M277.12,82.27s-19.65-19.84-31.83-25.08-33.67-10.31-38.18-9.7S236.43,55,245.9,61.69s24,22.63,24,22.63Z"/><path class="cls-5" d="M195,100.82s-1.11-5.61-16.85-11.5c-15.95-6-24.45-9.83-21.06-9.86,2.44,0,11.3,2.15,20.92,5.45s24.68,14,24.68,14Z"/></g></g></svg>